<svg xmlns="http://www.w3.org/2000/svg" version="1.1" xmlns:xlink="http://www.w3.org/1999/xlink" xmlns:svgjs="http://svgjs.dev/svgjs" width="100%" height="100%" viewBox="0 0 1000 600"><rect width="1000" height="600" x="0" y="0" fill="#3c72fc"/><g><circle r="166.66666666666666" cx="364.1902872721354" cy="386.4124937116951" fill="#ffffff" transform="matrix(0.6328358368836791,0,0,0.6328358368836791,0,55.4643464249919)"/><path d="M358.05360135653757 328.05873168100436L344.935031929701 343.0146357614595Q339.79049489956896 338.3845524343407 332.6983831366013 335.4815636816234Q325.64301806670596 332.578574928906 318.0731992937975 332.578574928906L318.0731992937975 332.578574928906Q306.97569798594134 332.578574928906 299.1853990545986 336.730951246084Q291.35835343018346 340.9200742563343 286.5445366377028 348.04893271237444Q281.6939731521498 355.17779116841444 279.45242487473513 364.65843798108625Q277.21087659732046 374.1023381006857 277.21087659732046 384.57514562631155L277.21087659732046 384.57514562631155Q277.21087659732046 395.4154200826611 279.2686914093733 405.26353382605663Q281.3265062214261 415.11164756945226 286.2138164000515 422.64471964928833Q291.1011265786769 430.2145384221969 299.22214574767094 434.6241415908815Q307.3799116097374 439.07049145263835 319.54306701669236 439.07049145263835L319.54306701669236 439.07049145263835Q329.7219009977392 439.07049145263835 336.8140127607069 436.6819564029342Q343.8693778306022 434.29342135323014 347.7277806032012 431.64765945201935L347.7277806032012 431.64765945201935L357.2451741089454 450.3149795327841Q349.8223421083264 455.34927648369893 339.9742283649308 458.3625053156334Q330.1261146215353 461.41248084064017 317.70573236307376 461.41248084064017L317.70573236307376 461.41248084064017Q301.1697204805066 461.41248084064017 288.7125915289727 454.87156947375814Q276.2922092705112 448.330658106876 268.0242033292276 437.4168902643817Q259.75619738794404 426.5031224218873 255.56707437769373 412.2821522028797Q251.41469806051575 398.0611819838719 251.41469806051575 382.8480510519101L251.41469806051575 382.8480510519101Q251.41469806051575 369.06804114977086 255.45683429847662 356.1699518813685Q259.49897053643747 343.2718626129661 267.766976477721 333.3502554834258Q276.03498241900456 323.42864835388554 288.63909814282795 317.438937383089Q301.27996055972375 311.4124797192201 318.36717283837646 311.4124797192201L318.36717283837646 311.4124797192201Q330.53032824533136 311.4124797192201 340.1212151372203 315.16064241260204Q349.71210202910925 318.94555179905626 358.05360135653757 328.05873168100436L358.05360135653757 328.05873168100436ZM465.57442528629633 320.67264637345767L457.931113127243 337.61287187982094Q455.5425780775389 336.4002310084327 452.2353757010255 335.2243368301168Q448.92817332451204 334.0116959587285 445.36374409649204 333.09302863191925Q441.7625681753996 332.1743613051099 438.12464556123484 331.6599076020968Q434.4867229470701 331.10870720601116 431.1795205705567 331.10870720601116L431.1795205705567 331.10870720601116Q417.17903050998314 331.10870720601116 411.3363063114761 335.2978302162615Q405.53032880604144 339.4502065334395 405.53032880604144 347.7917058608678L405.53032880604144 347.7917058608678Q405.53032880604144 353.3404565147959 409.3519848855681 356.9783791289606Q413.21038765816706 360.61630174312546 419.2735920151083 363.51929049584277Q425.373543065122 366.4222792485601 432.8331217588134 369.0312944566985Q440.32944714557715 371.60356297176446 447.4583056016172 375.16799219978446L447.4583056016172 375.16799219978446Q452.6395893248216 377.6667673287058 457.931113127243 381.1209564775086Q463.22263692966453 384.57514562631155 467.44850663298723 389.20522895343044Q471.67437633630993 393.8353122805492 474.3201382375207 399.6412897859838Q476.96590013873146 405.44726729141854 476.96590013873146 412.7231125197481L476.96590013873146 412.7231125197481Q476.96590013873146 426.09890879809126 472.4828035839021 435.3590754523288Q467.96296033600044 444.61924210656645 460.24615479080245 450.3884729189288Q452.49260255253205 456.1209570382187 442.09328841305097 458.7667189394295Q431.73072096664225 461.41248084064017 419.935032490411 461.41248084064017L419.935032490411 461.41248084064017Q415.4519359355817 461.41248084064017 409.75619850936414 460.5673068999757Q404.0604610831466 459.6853862662387 398.4014703500014 458.1787718502715Q392.7057329237838 456.6721574343043 387.5244492005794 454.5408492361068Q382.3799121704474 452.40954103790915 378.92572302164456 450.05775268127746L378.92572302164456 450.05775268127746L387.67143597286895 432.5663267788287Q390.8316515770929 434.18318127401295 395.204508052705 435.5428089176907Q399.5773645283173 436.9391832544408 404.20744785543604 438.0048373535396Q408.8375311825548 439.07049145263835 413.39412112352886 439.65843854179633Q417.95071106450297 440.2463856309543 421.5518869855954 440.2463856309543L421.5518869855954 440.2463856309543Q427.61509134253663 440.2463856309543 433.23733538260944 438.99699806649363Q438.85957942268226 437.74761050203296 443.15894251214974 434.9548618285327Q447.4583056016172 432.19885984810486 450.03057411668317 427.752509986348Q452.6395893248216 423.30616012459103 452.6395893248216 416.8387421438537L452.6395893248216 416.8387421438537Q452.6395893248216 411.9514319652283 450.58177451276873 408.24001596491877Q448.523959700716 404.5285999646092 445.0330238588407 401.6991045980366Q441.50534132389305 398.8328625383917 436.8752579967742 396.4810741817599Q432.24517466965546 394.09253913205583 427.1006376395234 391.88773754771347Q421.9193539163191 389.7196826564436 416.51759003468044 387.40464099288414Q411.07907945996953 385.0895993293248 406.19176928134414 382.2968506558246L406.19176928134414 382.2968506558246Q401.5616859542253 379.6510887546138 397.26232286475783 376.49087315038986Q392.9629597752904 373.3306575461659 389.6557573987769 369.36201469434985Q386.34855502226355 365.39337184253367 384.36423359635546 360.43256827776355Q382.3799121704474 355.47176471299343 382.3799121704474 349.1145868114732L382.3799121704474 349.1145868114732Q382.3799121704474 339.0459929096434 385.9443413984675 331.8436410674586Q389.5087706264875 324.64128922527385 396.0129353002972 320.12144597737216Q402.4803532810346 315.63834942254283 411.6302798560551 313.5070412243453Q420.7434597380032 311.4124797192201 431.73072096664225 311.4124797192201L431.73072096664225 311.4124797192201Q436.7650179175571 311.4124797192201 441.6523280961825 312.1841602737399Q446.5396382748079 312.99258752133204 451.0227348296372 314.2419750857927Q455.5425780775389 315.49136265025334 459.2539940778484 317.21845722465474Q462.92866338508554 318.94555179905626 465.57442528629633 320.67264637345767L465.57442528629633 320.67264637345767Z " fill="#3c72fc" transform="matrix(0.6328358368836791,0,0,0.6328358368836791,0,55.4643464249919)"/><path d="M680.6997289400545 409.76153566602346L686.1635654398898 418.68449167654586Q680.3459553537342 423.342510563096 673.3490999798444 425.28826528785754Q666.3522446059546 427.23402001261906 657.9992571511704 427.23402001261906L657.9992571511704 427.23402001261906Q647.7987854122691 427.23402001261906 639.6619929269029 422.8118501836157Q631.5252004415368 418.38968035461227 625.8648230604124 410.8228564249842Q620.204445679288 403.25603249535624 617.1973701955658 393.1341771089706Q614.1902947118434 383.0123217225851 614.1902947118434 371.5539883434341L614.1902947118434 371.5539883434341Q614.1902947118434 360.8621644013103 616.922212961761 351.29062348253404Q619.6541312116788 341.69942847562896 625.2358922402875 334.44706995606333Q630.8176532688962 327.1947114364978 639.3868356930983 322.94942840065454Q647.9560181173005 318.70414536481127 659.6305464658694 318.70414536481127L659.6305464658694 318.70414536481127Q667.7673389512356 318.70414536481127 675.0196974708012 321.27883090969766Q682.2720559903668 323.873170542713 687.3624648157529 328.7473843986812L687.3624648157529 328.7473843986812L680.994540261988 336.31420832830923Q677.5943830156876 334.0539881934853 672.4646660140437 332.36373661439956Q667.3349490123998 330.6538309471849 660.7508294892169 330.6538309471849L660.7508294892169 330.6538309471849Q652.1226848006281 330.6538309471849 646.1085338331834 333.91640957658296Q640.0943828657389 337.1593341178521 636.2814897687315 342.7214410583319Q632.4489425835952 348.2835479988118 630.7193828282516 355.6734851352797Q628.9898230729082 363.0634222717476 628.9898230729082 371.33779337401614L628.9898230729082 371.33779337401614Q628.9898230729082 376.23166131811325 629.7563325099354 381.3613783197572Q630.5424960350915 386.49109532140113 632.1344771735328 391.3653091773693Q633.7264583119739 396.23952303333755 636.2421815924737 400.5634224216963Q638.7579048729733 404.8873218100552 642.1777162074027 408.1302463513244Q645.6171816299609 411.3928249807224 650.0000432827064 413.29927152922613Q654.382904935452 415.20571807772984 659.8270873471585 415.20571807772984L659.8270873471585 415.20571807772984Q663.0110496240409 415.20571807772984 665.644697433314 414.9305608439252Q668.2586911544582 414.6357495219916 670.6957980824423 414.00681870186673Q673.1329050104264 413.37788788174174 675.5503578502817 412.33622121090986Q677.9481566020079 411.3142086282068 680.6997289400545 409.76153566602346L680.6997289400545 409.76153566602346ZM735.1808612333763 427.23402001261906L735.1808612333763 427.23402001261906Q727.3388800699436 427.23402001261906 720.8530309874053 424.16798226451004Q714.3868359929959 421.0822904282721 709.7091630183168 415.6774161928235Q705.0511441317665 410.25288786924597 702.4568044987511 402.8629507327781Q699.8821189538647 395.4730135963102 699.8821189538647 386.90383117210814L699.8821189538647 386.90383117210814Q699.8821189538647 378.35430283603483 702.3585340581067 371.0233279639537Q704.8349491623485 363.69235309187246 709.434005784512 358.3660952089395Q714.0330624066756 353.0201832378776 720.5778737536007 350.0131077541553Q727.1226851005257 347.00603227043297 735.1808612333763 347.00603227043297L735.1808612333763 347.00603227043297Q743.0424964849379 347.00603227043297 749.547999655605 350.0131077541553Q756.0535028262723 353.0201832378776 760.7311758009515 358.3660952089395Q765.4088487756306 363.69235309187246 768.0228424967748 371.0233279639537Q770.636836217919 378.35430283603483 770.636836217919 386.90383117210814L770.636836217919 386.90383117210814Q770.636836217919 395.4730135963102 768.1211129374194 402.8629507327781Q765.6053896569197 410.25288786924597 761.0063330347562 415.6774161928235Q756.4072764125926 421.0822904282721 749.8428109775386 424.16798226451004Q743.2586914543558 427.23402001261906 735.1808612333763 427.23402001261906ZM757.1934399377487 388.81027772061174L757.1934399377487 388.81027772061174Q757.1934399377487 383.0909380751007 755.9552323856278 377.56813931087873Q754.7170248335069 372.04534054665663 752.024414759847 367.7017870701689Q749.3318046861872 363.3385795055522 745.0865216503439 360.66562352002126Q740.8412386145006 357.97301344636145 734.9057039995716 357.97301344636145L734.9057039995716 357.97301344636145Q729.2453266184473 357.97301344636145 725.1376221995064 360.311849933701Q721.0299177805655 362.63103233291173 718.4159240594212 366.52254178243464Q715.801930338277 370.41405123195767 714.5637227861561 375.36688144044143Q713.325515234035 380.3197116489253 713.325515234035 385.56735317934266L713.325515234035 385.56735317934266Q713.325515234035 391.2866928248537 714.5637227861561 396.80949158907566Q715.801930338277 402.33229035329776 718.455232235679 406.65618974165665Q721.1085341330811 410.96043504188657 725.3145089926664 413.6137369392886Q729.5204838522519 416.2670388366907 735.4756725553099 416.2670388366907L735.4756725553099 416.2670388366907Q741.0574335839186 416.2670388366907 745.1651380028595 413.9282023493511Q749.2728424218005 411.6090199501404 751.9654524954603 407.73716458874634Q754.6384084809912 403.8849633154811 755.91592420937 398.93213310699736Q757.1934399377487 393.9793028985135 757.1934399377487 388.81027772061174ZM835.0236289282085 359.5256864085448L824.1352641047957 359.5256864085448Q817.6101068459996 359.5256864085448 812.8734716069337 361.96279333652893Q808.1368363678679 364.39990026451306 805.0314904435011 368.5862210359696Q801.9064904310053 372.75288771929723 800.4324338213376 378.4132651004216Q798.9387231235407 384.07364248154596 798.9387231235407 390.5201833878264L798.9387231235407 390.5201833878264Q798.9387231235407 396.80949158907566 800.4324338213376 401.54612682814155Q801.9064904310053 406.3024161553363 804.2846350946027 409.4863784322187Q806.6431256700712 412.67034070910125 809.6895093300514 414.2623218475424Q812.7358929900314 415.8543029859837 815.9198552669138 415.8543029859837L815.9198552669138 415.8543029859837Q819.2413961606986 415.8543029859837 822.1108930275186 414.7143658745072Q824.9803898943386 413.57442876303077 827.3781886460648 411.88417718394504Q829.7956414859201 410.1939256048593 831.7020880344237 408.1695545275822Q833.6085345829274 406.14518345030507 835.0236289282085 404.37631551870373L835.0236289282085 404.37631551870373L835.0236289282085 359.5256864085448ZM849.8821195536599 426.03512063675595L835.0236289282085 426.03512063675595L835.0236289282085 414.57678725760485L828.3019307881234 422.5760011260688Q827.0244150597446 423.42112691561164 825.5503584500768 424.2662527051546Q824.05664775228 425.1113784946975 822.2091634681631 425.7599634029513Q820.3813332721751 426.3888942230762 818.14076722548 426.82128416191205Q815.9198552669138 427.23402001261906 813.1682829288673 427.23402001261906L813.1682829288673 427.23402001261906Q807.3506728427117 427.23402001261906 802.3388803698413 424.36452314579907Q797.3074338088418 421.51468036710804 793.5928111524789 416.40461745359295Q789.8781884961161 411.3142086282068 787.7162388019366 404.27804507805917Q785.5739431958862 397.24188152791163 785.5739431958862 388.81027772061174L785.5739431958862 388.81027772061174Q785.5739431958862 380.3197116489253 788.2862073576748 372.9297745124574Q791.0181256075925 365.5398373759895 796.029918080463 360.0170386117674Q801.0613646414624 354.49423984754543 808.1761445441257 351.3495857469208Q815.290924446789 348.2049316462962 824.05664775228 348.2049316462962L824.05664775228 348.2049316462962L835.0236289282085 348.2049316462962L835.0236289282085 311.4124786689879L848.4670252083788 312.827573014269L848.4670252083788 413.29927152922613L849.8821195536599 426.03512063675595ZM923.2508305388585 410.1153092523437L930.9748871735178 416.9156237449445Q928.7736293030805 419.1758438797685 926.1596355819363 421.0822904282721Q923.5456418607921 422.9887369767758 920.3616795839096 424.36452314579907Q917.1777173070271 425.7599634029513 913.3058619456331 426.48716466372076Q909.453660672368 427.23402001261906 904.7170254333021 427.23402001261906L904.7170254333021 427.23402001261906Q895.302717219557 427.23402001261906 888.6596354319875 423.91247911883426Q881.996899556289 420.59093822504957 877.7909246967035 414.98952310831186Q873.5849498371181 409.4077620797031 871.6391951123567 402.1947117363954Q869.693440387595 394.9816613930877 869.693440387595 387.120026141526L869.693440387595 387.120026141526Q869.693440387595 382.08857958052664 870.6171825296535 377.1750575483006Q871.540924671712 372.2615355160746 873.3687548677001 367.8000575108135Q875.2162391518171 363.3385795055522 877.9678114898637 359.5256864085448Q880.7390379160391 355.7127933115375 884.4143523961443 352.94156688536196Q888.0896668762492 350.1899945473155 892.7280316746705 348.59801340887424Q897.366396473092 347.00603227043297 902.9481575017007 347.00603227043297L902.9481575017007 347.00603227043297Q910.5935977838443 347.00603227043297 916.175358812453 349.4824473746749Q921.7767739291907 351.95886247891684 925.4520884092957 356.420340484178Q929.1274028894007 360.8621644013103 930.8962708210022 367.0925103381729Q932.6651387526035 373.32285627503546 932.6651387526035 380.8896802046634L932.6651387526035 380.8896802046634Q932.6651387526035 383.0909380751007 932.5275601357012 385.7049317962449Q932.3899815187988 388.31892551738923 932.0951701968652 390.6577620047288L932.0951701968652 390.6577620047288L883.1368366677655 390.6577620047288Q883.1368366677655 395.9643657995328 884.5912391893044 400.5634224216963Q886.0456417108433 405.16247904385995 888.6596354319875 408.60194446641805Q891.2736291531317 412.0217558008474 894.9882518094946 413.96751052560893Q898.7028744658573 415.91326525037033 903.301931088021 415.91326525037033L903.301931088021 415.91326525037033Q907.8223713576688 415.91326525037033 911.1832204277114 415.24502625398765Q914.544069497754 414.57678725760485 916.9615223376093 413.6137369392886Q919.3593210893355 412.67034070910125 920.89233996339 411.66798221452706Q922.4057047493156 410.68527780808193 923.2508305388585 410.1153092523437L923.2508305388585 410.1153092523437ZM893.3962706710533 380.04455441512056L919.2217424724331 380.04455441512056Q919.3003588249487 379.25839088996446 919.3200129130776 378.4918814529372Q919.3593210893355 377.705717927781 919.3593210893355 376.93920849075374L919.3593210893355 376.93920849075374Q919.3593210893355 372.8904663361996 918.435578947277 369.50996317802804Q917.5314908933474 366.10980593172764 915.6446984329726 363.594082651228Q913.7775600607267 361.07835937072826 910.8687550176489 359.6632650254472Q907.9796040627001 358.2481706801661 904.0094782606615 358.2481706801661L904.0094782606615 358.2481706801661Q899.2728430215956 358.2481706801661 895.9119939515531 359.7811895542206Q892.5511448815105 361.29455434014625 890.2516165704287 363.6726990037436Q887.952088259347 366.031189579212 886.5763020903237 368.8613782697742Q885.1808618331715 371.6915669603364 884.4733146605308 374.24659841709394L884.4733146605308 374.24659841709394L880.7980001804258 381.95100096362427L893.3962706710533 380.04455441512056ZM991.312937729253 351.95886247891684L987.2248873984408 361.0193971063415Q985.9473716700621 360.3708121980878 984.1785037384607 359.7418813779628Q982.4096358068595 359.09329646970895 980.5031892583557 358.6019442664863Q978.5770886217231 358.1105920632637 976.6313338969617 357.8354348294591Q974.6855791722003 357.5406235075256 972.9167112405988 357.5406235075256L972.9167112405988 357.5406235075256Q965.4285036634864 357.5406235075256 962.3035036509907 359.7811895542206Q959.1981577266238 362.00210151278674 959.1981577266238 366.463579518048L959.1981577266238 366.463579518048Q959.1981577266238 369.43134682551243 961.2421828920299 371.37710155027395Q963.3058621455648 373.32285627503546 966.5487866868339 374.8755292372188Q969.811365316232 376.4282021994023 973.8011452063995 377.8236424565544Q977.8105791846959 379.1994286255777 981.6234722817032 381.1058751740814L981.6234722817032 381.1058751740814Q984.3946987078788 382.4423531668469 987.2248873984408 384.28983745096383Q990.0550760890031 386.1373217350809 992.3152962238271 388.6137368393227Q994.575516358651 391.09015194356465 995.9906107039321 394.19549786793146Q997.4057050492131 397.3008437922983 997.4057050492131 401.1923532418213L997.4057050492131 401.1923532418213Q997.4057050492131 408.3464413207424 995.0079062974869 413.29927152922613Q992.5904534576316 418.2521017377099 988.4630949505619 421.33779357394786Q984.3160823553632 424.4038313220569 978.7539754148833 425.81892566733796Q973.2115225625323 427.23402001261906 966.9025602731542 427.23402001261906L966.9025602731542 427.23402001261906Q964.504761521428 427.23402001261906 961.4583778614478 426.78197598565424Q958.4119942014677 426.3102778705606 955.3852646296166 425.5044602572755Q952.3388809696364 424.69864264399047 949.5676545434609 423.558705532514Q946.8160822054144 422.41876842103756 944.9685979212974 421.1609067807877L944.9685979212974 421.1609067807877L949.6462708959765 411.80556083142943Q951.3365224750623 412.67034070910125 953.6753589624018 413.3975419698707Q956.0141954497415 414.144397318769 958.4906105539833 414.7143658745072Q960.9670256582252 415.28433443024545 963.4041325862092 415.5987998403079Q965.8412395141934 415.91326525037033 967.7673401508259 415.91326525037033L967.7673401508259 415.91326525037033Q971.0102646920952 415.91326525037033 974.0173401758175 415.24502625398765Q977.0244156595397 414.57678725760485 979.3239439706215 413.08307655980815Q981.6234722817032 411.6090199501404 982.9992584507265 409.23087528654304Q984.3946987078788 406.85273062294567 984.3946987078788 403.3936111122585L984.3946987078788 403.3936111122585Q984.3946987078788 400.7796173911143 983.2940697726601 398.794554490095Q982.1934408374415 396.80949158907566 980.3263024651956 395.2961268031501Q978.4395100048209 393.7631079290956 975.963094900579 392.50524628884574Q973.4866797963371 391.227730560467 970.7351074582905 390.04848527273276Q967.9638810321151 388.88889407312735 965.0747300771661 387.65068652100643Q962.1659250340883 386.4124789688855 959.5519313129441 384.9187682710888L959.5519313129441 384.9187682710888Q957.0755162087022 383.50367392580773 954.7759878976204 381.813422346722Q952.4764595865386 380.12317076763617 950.7075916549372 378.0005292497146Q948.9387237233359 375.877887731793 947.877402964375 373.2245858343909Q946.8160822054144 370.5712839369889 946.8160822054144 367.1711266906885L946.8160822054144 367.1711266906885Q946.8160822054144 361.78590654336887 948.722528753918 357.93370527010364Q950.6289753024216 354.0815039968384 954.1077489012378 351.66405115698325Q957.5668684119248 349.2662524052569 962.4607363560219 348.1263152937806Q967.3349502119901 347.00603227043297 973.2115225625323 347.00603227043297L973.2115225625323 347.00603227043297Q975.9041326361923 347.00603227043297 978.5181263573365 347.41876812114Q981.1321200784807 347.85115805997583 983.529918830207 348.5193970563586Q985.9473716700621 349.1876360527413 987.9324345710816 350.1113781947998Q989.8978433839718 351.03512033685837 991.312937729253 351.95886247891684L991.312937729253 351.95886247891684ZM1031.7217429222796 367.0925103381729L1031.7217429222796 426.03512063675595L1018.2783466421092 426.03512063675595L1018.2783466421092 326.9785164670798L1016.8632522968281 312.827573014269L1031.7217429222796 311.4124786689879L1031.7217429222796 358.8181392359043L1038.011051123529 350.681346750538Q1040.7822775497043 349.12867378835466 1044.5951706467117 348.0673530293938Q1048.427717831848 347.00603227043297 1052.948158101496 347.00603227043297L1052.948158101496 347.00603227043297Q1063.561365691104 347.00603227043297 1069.2217430722283 354.0815039968384Q1074.8821204533526 361.1569757232439 1074.8821204533526 374.3841770339963L1074.8821204533526 374.3841770339963L1074.8821204533526 426.03512063675595L1061.4387241731824 426.03512063675595L1061.4387241731824 375.877887731793Q1061.4387241731824 371.12159840459816 1060.6329065598973 367.8000575108135Q1059.8074348584832 364.4785166170287 1058.3333782488155 362.355875099107Q1056.8396675510187 360.2332335811854 1054.6384096805816 359.2701832628691Q1052.4568058982732 358.3267870326817 1049.6855794720977 358.3267870326817L1049.6855794720977 358.3267870326817Q1046.9340071340512 358.3267870326817 1044.320013412907 358.9950260290645Q1041.7060196917628 359.6632650254472 1039.367183204423 360.84251031318144Q1037.0283467170837 362.00210151278674 1035.0825919923223 363.594082651228Q1033.1368372675606 365.18606378966916 1031.7217429222796 367.0925103381729L1031.7217429222796 367.0925103381729ZM1152.7123094438125 413.29927152922613L1154.1274037890935 426.03512063675595L1139.268913163642 426.03512063675595L1139.268913163642 414.57678725760485L1132.6258313760727 422.49738477355316Q1131.4072779120806 423.42112691561164 1129.854604949897 424.2662527051546Q1128.3019319877137 425.1113784946975 1126.7099508492724 425.77961749108016Q1125.1179697108314 426.4675105755918 1123.52598857239 426.840938250041Q1121.9340074339489 427.23402001261906 1120.5975294411833 427.23402001261906L1120.5975294411833 427.23402001261906Q1115.2909256463793 427.23402001261906 1110.43636587854 425.58307660979114Q1105.5818061107007 423.91247911883426 1101.9457998068533 420.689208665694Q1098.3097935030062 417.4659382125538 1096.1478438088268 412.6899947972301Q1093.9858941146472 407.9140513819064 1093.9858941146472 401.7033595331728L1093.9858941146472 401.7033595331728Q1093.9858941146472 395.11924000998994 1096.6391960120493 390.26468024215063Q1099.2924979094514 385.4297745624403 1103.4395105046501 382.20650410930006Q1107.56686901172 378.9832336561598 1112.657277837106 377.39125251771856Q1117.7673407506213 375.7992713792774 1122.6415546065894 375.7992713792774L1122.6415546065894 375.7992713792774Q1126.6706426730148 375.7992713792774 1129.7563345092526 376.23166131811325Q1132.8223722573616 376.64439716882026 1134.9450137752833 377.2143657245584L1134.9450137752833 377.2143657245584Q1137.4214288795251 377.84329654468337 1139.268913163642 378.62946006983947L1139.268913163642 378.62946006983947L1139.268913163642 376.15304496559764Q1139.268913163642 371.98637828227 1138.7775609604196 368.64518330035634Q1138.286208757197 365.32364240657154 1136.7531898831423 363.0241140954898Q1135.239825097217 360.724585784408 1132.3703282303968 359.5256864085448Q1129.5008313635767 358.3267870326817 1124.7641961245108 358.3267870326817L1124.7641961245108 358.3267870326817Q1120.9513030275036 358.3267870326817 1117.4135671643007 358.8574474121621Q1113.875831301098 359.38810779164254 1111.1046048749226 360.0170386117674L1111.1046048749226 360.0170386117674Q1107.8616803336536 360.80320213692363 1105.0904539074781 361.6483279264665L1105.0904539074781 361.6483279264665L1100.000045082092 352.1750574483347Q1103.1053910064588 350.75996310305374 1107.0755168084975 349.6200259915773L1107.0755168084975 349.6200259915773Q1110.4756740547978 348.63732158513204 1115.133692941348 347.81184988371814Q1119.8113659160272 347.00603227043297 1125.4717432971515 347.00603227043297L1125.4717432971515 347.00603227043297Q1133.6085357825177 347.00603227043297 1138.915139577322 349.1876360527413Q1144.2217433721257 351.3888939231786 1147.268127032106 355.35901972521725Q1150.314510692086 359.30949143912693 1151.5134100679493 364.8715983796067Q1152.7123094438125 370.41405123195767 1152.7123094438125 377.2143657245584L1152.7123094438125 377.2143657245584L1152.7123094438125 413.29927152922613ZM1139.268913163642 406.65618974165665L1139.268913163642 388.31892551738923Q1137.2838502626228 388.0437682835845 1135.0236301277987 387.748956961651L1135.0236301277987 387.748956961651Q1133.1171835792952 387.552416080362 1130.6407684750534 387.336221110944Q1128.1643533708113 387.120026141526 1125.4717432971515 387.120026141526L1125.4717432971515 387.120026141526Q1121.501617495113 387.120026141526 1118.219384777586 387.9061896666822Q1114.937152060059 388.6726991037095 1112.5196992202036 390.402258859053Q1110.1219004684774 392.1514727025255 1108.7657683875832 394.90304504057195Q1107.4292903948176 397.6546173786185 1107.4292903948176 401.62474318065716L1107.4292903948176 401.62474318065716Q1107.4292903948176 404.8087054575396 1108.4906111537784 407.4226991786839Q1109.5519319127393 410.0366928998281 1111.3994161968562 411.96279353646065Q1113.2272463928443 413.86924008496436 1115.742969673344 414.8912526676674Q1118.2586929538438 415.91326525037033 1121.1478439087925 415.91326525037033L1121.1478439087925 415.91326525037033Q1122.503975989687 415.91326525037033 1124.0173407756129 415.5201834877923Q1125.550359649667 415.1467558133431 1127.0637244355926 414.49817090508924Q1128.5770892215182 413.86924008496436 1130.1101080955727 413.0241142954215Q1131.6234728814984 412.1593344177497 1132.9796049623928 411.3142086282068L1132.9796049623928 411.3142086282068Q1136.1635672392754 409.27018346280084 1139.268913163642 406.65618974165665L1139.268913163642 406.65618974165665ZM1190.9198567664016 367.5249002770087L1190.9198567664016 414.7143658745072L1202.515768762455 414.7143658745072Q1209.0409260212514 414.7143658745072 1213.816869436575 412.55241618032784Q1218.5928128518985 410.39046648614834 1221.6588506000076 406.4989570366253Q1224.7445424362454 402.6074475871024 1226.2185990459134 397.163265175396Q1227.71230974371 391.7190827636895 1227.71230974371 385.1349632405067L1227.71230974371 385.1349632405067Q1227.71230974371 378.1970701310036 1226.3758317509446 373.1459694818753Q1225.0196996700502 368.09486883274695 1222.6808631827107 364.7929820270911Q1220.3616807835 361.5107493095641 1217.275988947262 359.91876817112296Q1214.190297111024 358.3267870326817 1210.731177600337 358.3267870326817L1210.731177600337 358.3267870326817Q1207.2720580896498 358.3267870326817 1204.2649826059276 359.21122099848236Q1201.2579071222053 360.095654964283 1198.7421838417056 361.4321329570485Q1196.2264605612058 362.78826503794295 1194.2413976601865 364.39990026451306Q1192.2563347591672 366.031189579212 1190.9198567664016 367.5249002770087L1190.9198567664016 367.5249002770087ZM1190.9198567664016 461.4124792687831L1177.4764604862314 461.4124792687831L1177.4764604862314 348.2049316462962L1190.9198567664016 346.7898373010151L1190.9198567664016 359.25052917474017L1197.6415549064868 350.24895681170216Q1199.6855800718931 349.05005743583905 1203.4788190807712 348.028044853136Q1207.2720580896498 347.00603227043297 1212.775202765743 347.00603227043297L1212.775202765743 347.00603227043297Q1218.6517751162853 347.00603227043297 1223.820800294187 349.75760460847954Q1228.9898254720888 352.52883103465507 1232.842026745354 357.6192398600412Q1236.694228018619 362.70964868542734 1238.9347940653142 369.92269902873505Q1241.1557060238802 377.1357493720429 1241.1557060238802 386.05870538256517L1241.1557060238802 386.05870538256517Q1241.1557060238802 394.7654664236697 1238.3255173333182 402.076787207622Q1235.495328642756 409.4077620797031 1230.2869952885965 414.753674050765Q1225.0983160225658 420.09958602182695 1217.7083788860978 423.0673533292914Q1210.2987876615011 426.03512063675595 1201.1792907696897 426.03512063675595L1201.1792907696897 426.03512063675595L1190.9198567664016 426.03512063675595L1190.9198567664016 461.4124792687831ZM1308.8640396279543 410.1153092523437L1316.5880962626138 416.9156237449445Q1314.3868383921765 419.1758438797685 1311.7728446710323 421.0822904282721Q1309.1588509498881 422.9887369767758 1305.9748886730058 424.36452314579907Q1302.7909263961233 425.7599634029513 1298.919071034729 426.48716466372076Q1295.0668697614637 427.23402001261906 1290.330234522398 427.23402001261906L1290.330234522398 427.23402001261906Q1280.915926308653 427.23402001261906 1274.2728445210835 423.91247911883426Q1267.610108645385 420.59093822504957 1263.4041337857996 414.98952310831186Q1259.198158926214 409.4077620797031 1257.2524042014527 402.1947117363954Q1255.3066494766913 394.9816613930877 1255.3066494766913 387.120026141526L1255.3066494766913 387.120026141526Q1255.3066494766913 382.08857958052664 1256.2303916187498 377.1750575483006Q1257.1541337608082 372.2615355160746 1258.9819639567963 367.8000575108135Q1260.8294482409133 363.3385795055522 1263.5810205789599 359.5256864085448Q1266.3522470051353 355.7127933115375 1270.0275614852403 352.94156688536196Q1273.7028759653454 350.1899945473155 1278.3412407637666 348.59801340887424Q1282.979605562188 347.00603227043297 1288.5613665907968 347.00603227043297L1288.5613665907968 347.00603227043297Q1296.2068068729404 347.00603227043297 1301.788567901549 349.4824473746749Q1307.3899830182868 351.95886247891684 1311.0652974983918 356.420340484178Q1314.7406119784969 360.8621644013103 1316.5094799100982 367.0925103381729Q1318.2783478416995 373.32285627503546 1318.2783478416995 380.8896802046634L1318.2783478416995 380.8896802046634Q1318.2783478416995 383.0909380751007 1318.1407692247972 385.7049317962449Q1318.0031906078948 388.31892551738923 1317.7083792859612 390.6577620047288L1317.7083792859612 390.6577620047288L1268.7500457568617 390.6577620047288Q1268.7500457568617 395.9643657995328 1270.2044482784004 400.5634224216963Q1271.6588507999395 405.16247904385995 1274.2728445210835 408.60194446641805Q1276.886838242228 412.0217558008474 1280.6014608985906 413.96751052560893Q1284.3160835549534 415.91326525037033 1288.9151401771169 415.91326525037033L1288.9151401771169 415.91326525037033Q1293.435580446765 415.91326525037033 1296.7964295168076 415.24502625398765Q1300.1572785868502 414.57678725760485 1302.5747314267053 413.6137369392886Q1304.9725301784315 412.67034070910125 1306.505549052486 411.66798221452706Q1308.0189138384117 410.68527780808193 1308.8640396279543 410.1153092523437L1308.8640396279543 410.1153092523437ZM1279.0094797601494 380.04455441512056L1304.8349515615291 380.04455441512056Q1304.913567914045 379.25839088996446 1304.9332220021738 378.4918814529372Q1304.9725301784315 377.705717927781 1304.9725301784315 376.93920849075374L1304.9725301784315 376.93920849075374Q1304.9725301784315 372.8904663361996 1304.048788036373 369.50996317802804Q1303.1446999824434 366.10980593172764 1301.2579075220688 363.594082651228Q1299.3907691498227 361.07835937072826 1296.4819641067452 359.6632650254472Q1293.5928131517962 358.2481706801661 1289.6226873497576 358.2481706801661L1289.6226873497576 358.2481706801661Q1284.8860521106917 358.2481706801661 1281.525203040649 359.7811895542206Q1278.1643539706065 361.29455434014625 1275.8648256595247 363.6726990037436Q1273.565297348443 366.031189579212 1272.1895111794197 368.8613782697742Q1270.7940709222676 371.6915669603364 1270.0865237496268 374.24659841709394L1270.0865237496268 374.24659841709394L1266.4112092695218 381.95100096362427L1279.0094797601494 380.04455441512056ZM1373.5456436601776 358.9557178528066L1373.5456436601776 358.9557178528066Q1370.7154549696152 358.9557178528066 1367.9442285434397 360.095654964283Q1365.1926562053934 361.21593798763064 1362.637624748636 363.1420386242632Q1360.1022473800072 365.0484851727669 1357.8223731570542 367.5838625413955Q1355.5621530222306 370.13889399815304 1353.6557064737267 372.9690826887152L1353.6557064737267 372.9690826887152L1353.6557064737267 426.03512063675595L1340.2123101935565 426.03512063675595L1340.2123101935565 348.2049316462962L1353.6557064737267 346.7898373010151L1353.6557064737267 362.70964868542734L1360.731178200132 350.32757316421777Q1361.6549203421905 349.75760460847954 1363.0307065112138 349.16798196461247Q1364.4064926802373 348.55870523261643 1366.1753606118386 348.1066612056516Q1367.9442285434397 347.63496309055796 1369.9685996207172 347.3204976804955Q1371.9733166098652 347.00603227043297 1374.0959581277866 347.00603227043297L1374.0959581277866 347.00603227043297Q1377.2799204046692 347.00603227043297 1379.4418700988488 347.5760008261712Q1381.6038197930282 348.1263152937806 1382.665140551989 348.63732158513204L1382.665140551989 348.63732158513204L1381.9575933793485 360.3708121980878Q1380.8962726203877 360.0170386117674 1378.773631102466 359.486378232287Q1376.6509895845443 358.9557178528066 1373.5456436601776 358.9557178528066Z " fill="#ffffff" transform="matrix(0.6328358368836791,0,0,0.6328358368836791,0,55.4643464249919)"/></g></svg>