<svg width="218" height="432" viewBox="0 0 218 432" fill="none" xmlns="http://www.w3.org/2000/svg">
<path fill-rule="evenodd" clip-rule="evenodd" d="M-249.772 238.631C-264.639 192.922 -247.969 141.816 -221.456 100.866C-194.486 59.2111 -151.969 27.4924 -103.055 12.0263C-55.5465 -2.99566 -1.05208 -4.69097 43.1467 17.2004C83.862 37.3663 89.8133 88.7266 119.225 122.12C149.349 156.321 208.993 170.167 216.648 214.187C224.317 258.295 181.903 294.683 155.735 332.087C129.807 369.148 111.137 420.037 65.4971 430.238C19.886 440.432 -19.09 400.555 -60.6785 380.456C-92.2776 365.185 -120.066 347.974 -147.861 327.127C-184.902 299.345 -235.849 281.435 -249.772 238.631" fill="#FDD2BF" fill-opacity="0.15"/>
</svg>
